<?xml version="1.0" encoding="utf-8"?>
<!-- Generator: Adobe Illustrator 28.2.0, SVG Export Plug-In . SVG Version: 6.00 Build 0)  -->
<svg version="1.1" id="Layer_1" xmlns="http://www.w3.org/2000/svg" xmlns:xlink="http://www.w3.org/1999/xlink" x="0px" y="0px"
	 viewBox="0 0 303.3 303.3" style="enable-background:new 0 0 303.3 303.3;" xml:space="preserve">
<style type="text/css">
	.st0{fill:#00B8E9;}
	.st1{fill:#FFFFFF;}
</style>
<g>
	<path class="st0" d="M237.6,303.3H65.7C29.4,303.3,0,273.9,0,237.6V65.7C0,29.4,29.4,0,65.7,0h171.9c36.3,0,65.7,29.4,65.7,65.7
		v171.9C303.3,273.9,273.9,303.3,237.6,303.3z"/>
	<g>
		<path class="st1" d="M124.8,90.9c0,1.9-0.6,3.9-1.9,5.8c-7.8,9.4-11.7,16-11.7,19.9l5.8,123c0.3,5.8-1.3,10.5-4.5,14.4
			c-3.3,3.6-7.8,5.5-14.1,5.8c-6.3,0.3-11.1-1.3-14.4-4.9c-3.6-3.6-5.5-8.1-5.5-13.6l-5.8-122.4c0-0.6-1.6-4.9-4.9-12
			c-3.3-7.5-4.9-11.7-4.9-12.7c0-1.9,1.9-8.5,6.1-18.9c1.9-4.9,3.6-10,5.5-15c3-5.2,6.4-9.1,11.1-11.4c6.4-3.3,14.1-5.2,22.8-5.5
			c8.5-0.3,13,1.6,13,6.4c0,0.6-0.3,1.9-1,4.5c-5.5,7.5-8.5,12.7-8.1,16.3c0,1,1.9,4.2,6.1,10C122.6,86.5,124.8,90.1,124.8,90.9z"/>
		<path class="st1" d="M240.4,120.8c0.6,16.6-5.8,25.4-19.5,26c-9.7,0.6-16.3-2.5-19.5-9.4c-0.3-0.3-1.6-6.9-3.9-19.2
			c-1.3-6.9-4.5-10.5-10-10c-7.5,0.3-11.1,12-9.7,35.2l4.5,95c0.3,5.8-1.3,10.5-4.9,14.4c-3.6,3.6-8.5,5.5-15,5.8
			c-6.4,0.3-11.7-1.3-15.6-4.9c-3.9-3.6-5.8-8.1-6.1-13.6l-6.4-135.2c0-2.2,0.6-5.2,1.9-9.1s3.3-6.4,5.2-7.8
			c3.6-1.9,8.8-3.3,15.3-3.9c-13,0.6-7.8,0.6,15.6,0c4.2-0.3,11.1-0.6,20.5-1.6c9.4-1,14.1-1.3,13.6-1.3
			C227.8,80.1,238.7,93.4,240.4,120.8z"/>
	</g>
</g>
</svg>
