<?xml version="1.0" encoding="utf-8"?>
<!-- Generator: Adobe Illustrator 28.2.0, SVG Export Plug-In . SVG Version: 6.00 Build 0)  -->
<svg version="1.1" id="Layer_1" xmlns="http://www.w3.org/2000/svg" xmlns:xlink="http://www.w3.org/1999/xlink" x="0px" y="0px"
	 viewBox="0 0 240.2 139.3" style="enable-background:new 0 0 240.2 139.3;" xml:space="preserve">
<style type="text/css">
	.st0{display:none;}
	.st1{display:inline;}
	.st2{fill:#FFFFFF;}
</style>
<g class="st0">
	<g class="st1">
		
			<text transform="matrix(0.9988 -4.800227e-02 4.800227e-02 0.9988 -372.5341 216.5875)" style="fill:#CC0000; font-family:'ArialMT'; font-size:78.5976px;">freefont</text>
	</g>
	<g class="st1">
		
			<text transform="matrix(0.9988 -4.800227e-02 4.800227e-02 0.9988 -274.0083 277.653)" style="fill:#CC0000; font-family:'ArialMT'; font-size:78.5976px;">.com</text>
	</g>
</g>
<g>
	<g>
		<path class="st2" d="M19,23c0,0.6-0.2,1.2-0.6,1.8c-2.4,2.9-3.6,4.9-3.6,6.1l1.8,37.8c0.1,1.8-0.4,3.2-1.4,4.4
			c-1,1.1-2.4,1.7-4.3,1.8c-1.9,0.1-3.4-0.4-4.4-1.5c-1.1-1.1-1.7-2.5-1.7-4.2L3,31.6c0-0.2-0.5-1.5-1.5-3.7C0.5,25.6,0,24.3,0,24
			c0-0.6,0.6-2.6,1.9-5.8c0.6-1.5,1.1-3.1,1.7-4.6C4.5,12,5.6,10.8,7,10.1c2-1,4.3-1.6,7-1.7c2.6-0.1,4,0.5,4,2
			c0,0.2-0.1,0.6-0.3,1.4c-1.7,2.3-2.6,3.9-2.5,5c0,0.3,0.6,1.3,1.9,3.1C18.4,21.7,19,22.8,19,23z"/>
		<path class="st2" d="M54.5,32.2c0.2,5.1-1.8,7.8-6,8c-3,0.2-5-0.8-6-2.9c-0.1-0.1-0.5-2.1-1.2-5.9c-0.4-2.1-1.4-3.2-3.1-3.1
			c-2.3,0.1-3.4,3.7-3,10.8l1.4,29.2c0.1,1.8-0.4,3.2-1.5,4.4c-1.1,1.1-2.6,1.7-4.6,1.8c-2,0.1-3.6-0.4-4.8-1.5
			c-1.2-1.1-1.8-2.5-1.9-4.2l-2-41.5c0-0.7,0.2-1.6,0.6-2.8s1-2,1.6-2.4c1.1-0.6,2.7-1,4.7-1.2c-4,0.2-2.4,0.2,4.8,0
			c1.3-0.1,3.4-0.2,6.3-0.5S44.1,20,44,20C50.6,19.7,54,23.8,54.5,32.2z"/>
		<path class="st2" d="M89.5,61c0.2,4.7-1.3,8-4.7,9.9c-2.2,1.3-5.9,2-10.8,2.2c-10.7,0.5-16.3-2.6-16.6-9.3l-1.6-33
			c-0.2-4.2,1.5-7.1,5-8.9c2.3-1.1,5.8-1.8,10.4-2c7.1-0.3,11.6,0.5,13.8,2.6c1.8,1.8,2.9,5.9,3.2,12.3c0.2,4,0.3,5.6,0.3,4.6
			c0,2-0.4,3.6-1.2,4.7c-1.1,1.4-3.5,2.2-7.2,2.5c-4.1,0.2-6.7,0.8-7.7,1.5c-1.6,1.3-2.6,2.8-2.8,4.5c-0.1,0.5-0.1,2.2,0.1,5
			c0.1,2.5,0.3,4.1,0.5,4.9c0.6,2.3,1.8,3.4,3.5,3.3c1.9-0.1,3-1.1,3.3-3c0.2-1.8,0.4-3.6,0.6-5.4c0.7-1.9,2.5-3,5.4-3.1
			C87.1,54.2,89.3,56.4,89.5,61z M75.6,33.4c-0.2-4.2-1.5-6.2-3.8-6.1c-2.4,0.1-3.5,2.3-3.3,6.5c0.2,4.2,1.5,6.2,3.9,6.1
			C74.7,39.7,75.8,37.6,75.6,33.4z"/>
		<path class="st2" d="M123.8,59.3c0.2,4.7-1.3,8-4.7,9.9c-2.2,1.3-5.9,2-10.8,2.2C97.5,72,92,68.9,91.7,62.2l-1.6-33
			c-0.2-4.2,1.5-7.1,5-8.9c2.3-1.1,5.8-1.8,10.4-2c7.1-0.3,11.6,0.5,13.8,2.6c1.8,1.8,2.9,5.9,3.2,12.3c0.2,4,0.3,5.6,0.3,4.6
			c0,2-0.4,3.6-1.2,4.7c-1.1,1.4-3.5,2.2-7.2,2.5c-4.1,0.2-6.7,0.8-7.7,1.5c-1.6,1.3-2.6,2.8-2.8,4.5c-0.1,0.5-0.1,2.2,0.1,5
			c0.1,2.5,0.3,4.1,0.5,4.9c0.6,2.3,1.8,3.4,3.5,3.3c1.9-0.1,3-1.1,3.3-3c0.2-1.8,0.4-3.6,0.6-5.4c0.7-1.9,2.5-3,5.4-3.1
			C121.4,52.6,123.6,54.8,123.8,59.3z M109.9,31.7c-0.2-4.2-1.5-6.2-3.8-6.1c-2.4,0.1-3.5,2.3-3.3,6.4c0.2,4.2,1.5,6.2,3.9,6.1
			C109,38.1,110.1,35.9,109.9,31.7z"/>
		<path class="st2" d="M143.7,17c0,0.6-0.2,1.2-0.6,1.8c-2.4,2.9-3.6,4.9-3.6,6.1l1.8,37.8c0.1,1.8-0.4,3.2-1.4,4.4
			c-1,1.1-2.4,1.7-4.3,1.8c-1.9,0.1-3.4-0.4-4.4-1.5s-1.7-2.5-1.7-4.2l-1.8-37.7c0-0.2-0.5-1.5-1.5-3.7c-1-2.3-1.5-3.6-1.5-3.8
			c0-0.6,0.6-2.6,1.9-5.8c0.6-1.6,1.1-3.1,1.7-4.7c0.8-1.6,1.9-2.7,3.4-3.5c2-1,4.3-1.5,7-1.7c2.6-0.1,4,0.5,4,2
			c0,0.2-0.1,0.6-0.3,1.3c-1.7,2.3-2.6,4-2.5,5c0,0.3,0.6,1.3,1.9,3.1C143,15.7,143.7,16.8,143.7,17z"/>
		<path class="st2" d="M181.3,56.6c0.2,4.3-1.6,7.4-5.4,9.2c-2.4,1.1-5.9,1.7-10.5,1.9c-4.7,0.2-8.3-0.1-10.8-1.1
			c-3.8-1.4-5.8-4.2-6-8.6l-1.6-32.5c-0.2-4.3,1.4-7.3,4.8-9.1c2.3-1.2,5.9-1.9,10.9-2.1c4.8-0.2,8.5,0.1,11,1
			c3.7,1.4,5.7,4.3,5.9,8.5L181.3,56.6z M168.6,56.4l-1.5-31.1c0-0.5-0.4-1.2-1-2.1c-0.8-1.1-1.7-1.6-2.8-1.6
			c-0.8,0-1.6,0.5-2.4,1.5c-0.7,1-1.1,1.8-1.1,2.6l1.5,30.9c0,0.6,0.4,1.4,1.1,2.2c0.9,1.1,1.8,1.6,2.8,1.6s1.8-0.6,2.5-1.6
			C168.3,58,168.6,57.2,168.6,56.4z"/>
		<path class="st2" d="M218.1,58.9c0.1,1.9-0.4,3.4-1.5,4.5s-2.5,1.7-4.2,1.7c-1.9,0.1-3.4-0.4-4.5-1.4s-1.7-2.4-1.8-3.9l-1.8-37
			c0-0.9-0.5-1.7-1.2-2.5s-1.5-1.1-2.3-1.1c-0.9,0-1.7,0.5-2.4,1.3c-0.6,0.9-0.9,1.7-0.9,2.5l1.8,37c0.1,1.8-0.4,3.2-1.5,4.3
			s-2.5,1.6-4.3,1.7c-1.9,0.1-3.5-0.4-4.6-1.5s-1.7-2.5-1.8-4.2l-2-41.6c0-0.7,0.2-1.6,0.6-2.8s0.9-2,1.5-2.4
			c1.1-0.7,2.6-1.1,4.4-1.2c0.6,0,1.4,0,2.5,0s1.9,0,2.3,0c1.3-0.1,4.5-0.4,9.6-0.9c3.6-0.2,6.2,1,8,3.6c1.4,1.9,2.1,4.3,2.2,7.4
			L218.1,58.9z"/>
		<path class="st2" d="M236.6,14.2c0,0.2-0.5,1.5-1.6,3.9c-1.1,2.4-1.6,3.6-1.6,3.9l1.6,34.2c0,0.2,0.6,1.3,1.8,3.4
			c1.2,2,1.8,3.2,1.8,3.4c0.1,1.7-1.2,2.6-4,2.7c-7.3,0.3-11.1-3.3-11.5-11.1L221.7,22c0,0-0.4-1.1-1.1-3.1c-0.7-2-1.1-3.3-1.1-4.1
			c0-0.5,0.3-2.3,0.8-5.5c0.6-3.5,1.2-5.9,1.6-7.2c0.2-0.6,1.2-1.3,3-2c0.2-0.1,0.8-0.1,1.6-0.2c1.5-0.1,2.8,0.2,3.7,0.8
			s1.6,1.8,2.1,3.5c0.6,2.6,1,4,1.1,4.2c0.4,0.7,1,1.7,2,3C236.2,12.4,236.6,13.3,236.6,14.2z"/>
	</g>
	<g>
		<path class="st2" d="M113.4,133.5c0.1,1.7-0.4,3-1.5,4.1c-1.1,1.1-2.4,1.6-4,1.7c-1.8,0.1-3.2-0.4-4.3-1.4s-1.7-2.3-1.7-3.8
			c-0.1-1.6,0.4-3,1.5-4.1c1.1-1.1,2.4-1.7,4-1.8c1.7-0.1,3.1,0.4,4.2,1.4C112.8,130.7,113.4,132,113.4,133.5z"/>
		<path class="st2" d="M145.4,121.9c0.3,5.4-0.9,9.1-3.3,11c-1.9,1.4-5.4,2.2-10.6,2.5c-4,0.2-7.1-0.1-9.2-0.8
			c-3.7-1.3-5.6-4-5.8-8.2l-1.6-34c-0.3-6.8,4.3-10.4,14-10.9c0.1,0,0.8,0,2,0.1c1.2,0.1,2.2,0.1,2.8,0.1c4.1-0.1,6.9,1.1,8.6,3.8
			c1.1,1.7,1.7,4.3,1.9,7.8c0.3,5.5-1.5,8.3-5.3,8.5c-2.6,0.1-4.4-0.9-5.2-3.2c-0.4-2.1-0.8-4.2-1.2-6.4s-1.5-3.2-3.2-3.1
			c-0.9,0-1.6,0.5-2.3,1.3c-0.6,0.8-0.9,1.7-0.9,2.4l1.5,31.7c0,0.8,0.5,1.7,1.3,2.5c0.8,0.8,1.5,1.3,2.2,1.2c1.8-0.1,2.8-1.4,3-3.9
			c0.1-2.3,0.1-4.6,0.2-6.9c0.6-2.6,2.2-3.9,5.1-4c2.6-0.1,4.4,0.9,5.3,3.1C145,117.6,145.3,119.4,145.4,121.9z"/>
		<path class="st2" d="M182,122.3c0.2,4.3-1.6,7.4-5.4,9.2c-2.4,1.1-5.9,1.7-10.5,1.9c-4.7,0.2-8.3-0.1-10.8-1.1
			c-3.8-1.4-5.8-4.2-6-8.6l-1.6-32.5c-0.2-4.3,1.4-7.3,4.8-9.1c2.3-1.2,5.9-1.9,10.9-2.1c4.8-0.2,8.5,0.1,11,1
			c3.7,1.4,5.7,4.3,5.9,8.5L182,122.3z M169.3,122.2l-1.5-31.1c0-0.5-0.4-1.2-1-2.1c-0.8-1.1-1.7-1.6-2.8-1.6
			c-0.8,0-1.6,0.5-2.4,1.5c-0.7,0.9-1.1,1.8-1.1,2.6l1.5,31c0,0.6,0.4,1.4,1.1,2.2c0.9,1.1,1.8,1.6,2.8,1.6c0.9-0.1,1.8-0.6,2.5-1.6
			C169,123.8,169.4,122.9,169.3,122.2z"/>
		<path class="st2" d="M240.2,122.9c0.1,1.6-0.4,3-1.5,4.2c-1.1,1.2-2.6,1.9-4.6,1.9c-1.8,0.1-3.4-0.4-4.8-1.5
			c-1.4-1.1-2.1-2.3-2.2-3.8l-1.7-36.2c0-0.6-0.4-1.3-1-2.1c-0.8-0.8-1.6-1.2-2.4-1.1s-1.6,0.5-2.2,1.3s-0.9,1.6-0.9,2.1l1.8,36.6
			c0.1,1.6-0.6,3-2.1,4c-1.3,0.9-2.7,1.5-4.2,1.5c-1.9,0.1-3.4-0.4-4.6-1.4c-1.2-1.1-1.8-2.3-1.9-3.8l-1.8-36.4
			c0-0.8-0.5-1.6-1.4-2.4c-0.9-0.8-1.7-1.1-2.6-1.1c-1,0.1-1.9,0.6-2.6,1.5s-1.1,1.7-1,2.2l1.8,36.5c0.1,1.4-0.4,2.7-1.5,3.9
			c-1.1,1.2-2.5,1.9-4.2,1.9c-2,0.1-3.6-0.5-4.8-1.7c-1-1.1-1.5-2.3-1.6-3.9l-2-41.3c-0.2-3.9,2.2-6,7.1-6.2c0.3,0,1.6,0,4.1,0.1
			c2.5,0.1,3.9,0.1,4.1,0.1c0.2,0,1.4-0.2,3.7-0.4c2.2-0.3,3.5-0.4,3.8-0.5c0.3,0,1.9,0.1,4.9,0.3c3,0.2,4.6,0.3,4.9,0.3
			c0.3,0,1.8-0.3,4.6-0.8s4.3-0.8,4.5-0.8c3.6-0.2,6.4,1,8.3,3.5c1.5,1.9,2.3,4.3,2.5,7.3L240.2,122.9z"/>
	</g>
</g>
</svg>
