<?xml version="1.0" encoding="utf-8"?>
<!-- Generator: Adobe Illustrator 28.2.0, SVG Export Plug-In . SVG Version: 6.00 Build 0)  -->
<svg version="1.1" id="Layer_1" xmlns="http://www.w3.org/2000/svg" xmlns:xlink="http://www.w3.org/1999/xlink" x="0px" y="0px"
	 viewBox="0 0 522.5 303.3" style="enable-background:new 0 0 522.5 303.3;" xml:space="preserve">
<style type="text/css">
	.st0{fill:#00B8E9;}
</style>
<g>
	<g>
		<path class="st0" d="M41.3,50.3c0,1.3-0.4,2.6-1.3,3.9c-5.2,6.3-7.8,10.7-7.8,13.3l3.9,82.2c0.2,3.9-0.9,7-3,9.6
			c-2.2,2.4-5.2,3.7-9.4,3.9s-7.4-0.9-9.6-3.3c-2.4-2.4-3.7-5.4-3.7-9.1L6.5,69c0-0.4-1.1-3.3-3.3-8c-2.2-5-3.3-7.8-3.3-8.5
			c0-1.3,1.3-5.7,4.1-12.6c1.3-3.3,2.4-6.7,3.7-10c2-3.5,4.3-6.1,7.4-7.6c4.3-2.2,9.4-3.5,15.2-3.7c5.7-0.2,8.7,1.1,8.7,4.3
			c0,0.4-0.2,1.3-0.7,3c-3.7,5-5.7,8.5-5.4,10.9c0,0.7,1.3,2.8,4.1,6.7S41.3,49.8,41.3,50.3z"/>
		<path class="st0" d="M118.5,70.3c0.4,11.1-3.9,17-13,17.4c-6.5,0.4-10.9-1.7-13-6.3c-0.2-0.2-1.1-4.6-2.6-12.8
			c-0.9-4.6-3-7-6.7-6.7c-5,0.2-7.4,8-6.5,23.5l3,63.5c0.2,3.9-0.9,7-3.3,9.6c-2.4,2.4-5.7,3.7-10,3.9s-7.8-0.9-10.4-3.3
			c-2.6-2.4-3.9-5.4-4.1-9.1l-4.3-90.3c0-1.5,0.4-3.5,1.3-6.1c0.9-2.6,2.2-4.3,3.5-5.2c2.4-1.3,5.9-2.2,10.2-2.6
			c-8.7,0.4-5.2,0.4,10.4,0c2.8-0.2,7.4-0.4,13.7-1.1c6.3-0.7,9.4-0.9,9.1-0.9C110.1,43.1,117.4,52,118.5,70.3z"/>
		<path class="st0" d="M194.7,132.9c0.4,10.2-2.8,17.4-10.2,21.5c-4.8,2.8-12.8,4.3-23.5,4.8c-23.3,1.1-35.5-5.7-36.1-20.2
			l-3.5-71.8c-0.4-9.1,3.3-15.4,10.9-19.4c5-2.4,12.6-3.9,22.6-4.3c15.4-0.7,25.2,1.1,30,5.7c3.9,3.9,6.3,12.8,7,26.8
			c0.4,8.7,0.7,12.2,0.7,10c0,4.3-0.9,7.8-2.6,10.2c-2.4,3-7.6,4.8-15.7,5.4c-8.9,0.4-14.6,1.7-16.7,3.3c-3.5,2.8-5.7,6.1-6.1,9.8
			c-0.2,1.1-0.2,4.8,0.2,10.9c0.2,5.4,0.7,8.9,1.1,10.7c1.3,5,3.9,7.4,7.6,7.2c4.1-0.2,6.5-2.4,7.2-6.5c0.4-3.9,0.9-7.8,1.3-11.7
			c1.5-4.1,5.4-6.5,11.7-6.7C189.4,118.1,194.2,122.9,194.7,132.9L194.7,132.9z M164.4,72.9c-0.4-9.1-3.3-13.5-8.3-13.3
			c-5.2,0.2-7.6,5-7.2,14.1c0.4,9.1,3.3,13.5,8.5,13.3C162.5,86.6,164.9,82,164.4,72.9L164.4,72.9z"/>
		<path class="st0" d="M269.3,129.2c0.4,10.2-2.8,17.4-10.2,21.5c-4.8,2.8-12.8,4.3-23.5,4.8c-23.5,1.3-35.5-5.4-36.1-20L196,63.8
			c-0.4-9.1,3.3-15.4,10.9-19.4c5-2.4,12.6-3.9,22.6-4.3c15.4-0.7,25.2,1.1,30,5.7c3.9,3.9,6.3,12.8,7,26.8c0.4,8.7,0.7,12.2,0.7,10
			c0,4.3-0.9,7.8-2.6,10.2c-2.4,3-7.6,4.8-15.7,5.4c-8.9,0.4-14.6,1.7-16.7,3.3c-3.5,2.8-5.7,6.1-6.1,9.8c-0.2,1.1-0.2,4.8,0.2,10.9
			c0.2,5.4,0.7,8.9,1.1,10.7c1.3,5,3.9,7.4,7.6,7.2c4.1-0.2,6.5-2.4,7.2-6.5c0.4-3.9,0.9-7.8,1.3-11.7c1.5-4.1,5.4-6.5,11.7-6.7
			C264,114.7,268.8,119.4,269.3,129.2L269.3,129.2z M239,69.2c-0.4-9.1-3.3-13.5-8.3-13.3c-5.2,0.2-7.6,5-7.2,13.9
			c0.4,9.1,3.3,13.5,8.5,13.3C237.1,83.1,239.5,78.3,239,69.2L239,69.2z"/>
		<path class="st0" d="M312.5,37.2c0,1.3-0.4,2.6-1.3,3.9c-5.2,6.3-7.8,10.7-7.8,13.3l3.9,82.2c0.2,3.9-0.9,7-3,9.6
			c-2.2,2.4-5.2,3.7-9.4,3.9c-4.1,0.2-7.4-0.9-9.6-3.3c-2.2-2.4-3.7-5.4-3.7-9.1l-3.9-82c0-0.4-1.1-3.3-3.3-8
			c-2.2-5-3.3-7.8-3.3-8.3c0-1.3,1.3-5.7,4.1-12.6c1.3-3.5,2.4-6.7,3.7-10.2c1.7-3.5,4.1-5.9,7.4-7.6c4.3-2.2,9.4-3.3,15.2-3.7
			c5.7-0.2,8.7,1.1,8.7,4.3c0,0.4-0.2,1.3-0.7,2.8c-3.7,5-5.7,8.7-5.4,10.9c0,0.7,1.3,2.8,4.1,6.7C311,34.4,312.5,36.8,312.5,37.2
			L312.5,37.2z"/>
		<path class="st0" d="M394.3,123.4c0.4,9.4-3.5,16.1-11.7,20c-5.2,2.4-12.8,3.7-22.8,4.1c-10.2,0.4-18.1-0.2-23.5-2.4
			c-8.3-3-12.6-9.1-13-18.7l-3.5-70.7c-0.4-9.4,3-15.9,10.4-19.8c5-2.6,12.8-4.1,23.7-4.6c10.4-0.4,18.5,0.2,23.9,2.2
			c8,3,12.4,9.4,12.8,18.5L394.3,123.4L394.3,123.4z M366.7,122.9l-3.3-67.6c0-1.1-0.9-2.6-2.2-4.6c-1.7-2.4-3.7-3.5-6.1-3.5
			c-1.7,0-3.5,1.1-5.2,3.3c-1.5,2.2-2.4,3.9-2.4,5.7l3.3,67.2c0,1.3,0.9,3,2.4,4.8c2,2.4,3.9,3.5,6.1,3.5s3.9-1.3,5.4-3.5
			C366,126.4,366.7,124.7,366.7,122.9z"/>
		<path class="st0" d="M474.4,128.4c0.2,4.1-0.9,7.4-3.3,9.8c-2.4,2.4-5.4,3.7-9.1,3.7c-4.1,0.2-7.4-0.9-9.8-3
			c-2.4-2.2-3.7-5.2-3.9-8.5l-3.9-80.5c0-2-1.1-3.7-2.6-5.4s-3.3-2.4-5-2.4c-2,0-3.7,1.1-5.2,2.8c-1.3,2-2,3.7-2,5.4l3.9,80.5
			c0.2,3.9-0.9,7-3.3,9.4s-5.4,3.5-9.4,3.7c-4.1,0.2-7.6-0.9-10-3.3c-2.4-2.4-3.7-5.4-3.9-9.1L402.6,41c0-1.5,0.4-3.5,1.3-6.1
			s2-4.3,3.3-5.2c2.4-1.5,5.7-2.4,9.6-2.6h10.4c2.8-0.2,9.8-0.9,20.9-2c7.8-0.4,13.5,2.2,17.4,7.8c3,4.1,4.6,9.4,4.8,16.1
			C470.2,49,474.4,128.4,474.4,128.4z"/>
		<path class="st0" d="M514.6,31.1c0,0.4-1.1,3.3-3.5,8.5c-2.4,5.2-3.5,7.8-3.5,8.5l3.5,74.4c0,0.4,1.3,2.8,3.9,7.4
			c2.6,4.3,3.9,7,3.9,7.4c0.2,3.7-2.6,5.7-8.7,5.9c-15.9,0.7-24.1-7.2-25-24.1l-3-70.9c0,0-0.9-2.4-2.4-6.7s-2.4-7.2-2.4-8.9
			c0-1.1,0.7-5,1.7-12c1.3-7.6,2.6-12.8,3.5-15.7c0.4-1.3,2.6-2.8,6.5-4.3c0.4-0.2,1.7-0.2,3.5-0.4c3.3-0.2,6.1,0.4,8,1.7
			s3.5,3.9,4.6,7.6c1.3,5.7,2.2,8.7,2.4,9.1c0.9,1.5,2.2,3.7,4.3,6.5C513.7,27.2,514.6,29.2,514.6,31.1L514.6,31.1z"/>
	</g>
</g>
<g>
	<g>
		<path class="st0" d="M246.6,290.6c0.2,3.7-0.9,6.5-3.3,8.9c-2.4,2.4-5.2,3.5-8.7,3.7c-3.9,0.2-7-0.9-9.4-3c-2.4-2.2-3.7-5-3.7-8.3
			c-0.2-3.5,0.9-6.5,3.3-8.9c2.4-2.4,5.2-3.7,8.7-3.9c3.7-0.2,6.7,0.9,9.1,3C245.3,284.5,246.6,287.4,246.6,290.6L246.6,290.6z"/>
		<path class="st0" d="M316.2,265.4c0.7,11.7-2,19.8-7.2,23.9c-4.1,3-11.7,4.8-23.1,5.4c-8.7,0.4-15.4-0.2-20-1.7
			c-8-2.8-12.2-8.7-12.6-17.8l-3.5-73.9c-0.7-14.8,9.4-22.6,30.4-23.7c0.2,0,1.7,0,4.3,0.2c2.6,0.2,4.8,0.2,6.1,0.2
			c8.9-0.2,15,2.4,18.7,8.3c2.4,3.7,3.7,9.4,4.1,17c0.7,12-3.3,18.1-11.5,18.5c-5.7,0.2-9.6-2-11.3-7c-0.9-4.6-1.7-9.1-2.6-13.9
			c-0.9-4.8-3.3-7-7-6.7c-2,0-3.5,1.1-5,2.8c-1.3,1.7-2,3.7-2,5.2l3.3,68.9c0,1.7,1.1,3.7,2.8,5.4c1.7,1.7,3.3,2.8,4.8,2.6
			c3.9-0.2,6.1-3,6.5-8.5c0.2-5,0.2-10,0.4-15c1.3-5.7,4.8-8.5,11.1-8.7c5.7-0.2,9.6,2,11.5,6.7C315.4,256,316,259.9,316.2,265.4z"
			/>
		<path class="st0" d="M395.8,266.3c0.4,9.4-3.5,16.1-11.7,20c-5.2,2.4-12.8,3.7-22.8,4.1c-10.2,0.4-18.1-0.2-23.5-2.4
			c-8.3-3-12.6-9.1-13-18.7l-3.5-70.7c-0.4-9.4,3-15.9,10.4-19.8c5-2.6,12.8-4.1,23.7-4.6c10.4-0.4,18.5,0.2,23.9,2.2
			c8,3,12.4,9.4,12.8,18.5L395.8,266.3L395.8,266.3z M368.2,266l-3.3-67.6c0-1.1-0.9-2.6-2.2-4.6c-1.7-2.4-3.7-3.5-6.1-3.5
			c-1.7,0-3.5,1.1-5.2,3.3c-1.5,2-2.4,3.9-2.4,5.7l3.3,67.4c0,1.3,0.9,3,2.4,4.8c2,2.4,3.9,3.5,6.1,3.5c2-0.2,3.9-1.3,5.4-3.5
			C367.6,269.5,368.4,267.6,368.2,266z"/>
		<path class="st0" d="M522.4,267.6c0.2,3.5-0.9,6.5-3.3,9.1c-2.4,2.6-5.7,4.1-10,4.1c-3.9,0.2-7.4-0.9-10.4-3.3s-4.6-5-4.8-8.3
			l-3.7-78.7c0-1.3-0.9-2.8-2.2-4.6c-1.7-1.7-3.5-2.6-5.2-2.4s-3.5,1.1-4.8,2.8s-2,3.5-2,4.6l3.9,79.6c0.2,3.5-1.3,6.5-4.6,8.7
			c-2.8,2-5.9,3.3-9.1,3.3c-4.1,0.2-7.4-0.9-10-3c-2.6-2.4-3.9-5-4.1-8.3l-3.9-79.2c0-1.7-1.1-3.5-3-5.2c-2-1.7-3.7-2.4-5.7-2.4
			c-2.2,0.2-4.1,1.3-5.7,3.3c-1.5,2-2.4,3.7-2.2,4.8l3.9,79.4c0.2,3-0.9,5.9-3.3,8.5s-5.4,4.1-9.1,4.1c-4.3,0.2-7.8-1.1-10.4-3.7
			c-2.2-2.4-3.3-5-3.5-8.5l-4.3-89.8c-0.4-8.5,4.8-13,15.4-13.5c0.7,0,3.5,0,8.9,0.2s8.5,0.2,8.9,0.2s3-0.4,8-0.9
			c4.8-0.7,7.6-0.9,8.3-1.1c0.7,0,4.1,0.2,10.7,0.7c6.5,0.4,10,0.7,10.7,0.7s3.9-0.7,10-1.7c6.1-1.1,9.4-1.7,9.8-1.7
			c7.8-0.4,13.9,2.2,18.1,7.6c3.3,4.1,5,9.4,5.4,15.9L522.4,267.6L522.4,267.6z"/>
	</g>
</g>
</svg>
